<svg width="1043" height="296" viewBox="0 0 1043 296" fill="none" xmlns="http://www.w3.org/2000/svg">
<path d="M221.5 195H188.5L165.5 153.333H120.333V195H87.1667V55H160.667C198.167 55 218 72.5 218 105.167C218 124.667 208.5 138.833 194.167 146.667L221.5 195ZM120.333 82.8333V127.833H158.833C175.667 127.833 185 120.167 185 105.333C185 90.5 175.667 82.8333 158.833 82.8333H120.333ZM302.906 199.667C257.24 199.667 226.073 169 226.073 125C226.073 81 257.24 50.3333 302.906 50.3333C348.74 50.3333 379.906 81 379.906 125C379.906 169 348.74 199.667 302.906 199.667ZM302.906 170.833C327.906 170.833 346.906 152.5 346.906 125C346.906 97.5 327.906 79.1667 302.906 79.1667C278.073 79.1667 258.906 97.5 258.906 125C258.906 152.5 278.073 170.833 302.906 170.833ZM466.969 199.667C421.302 199.667 390.135 169 390.135 125C390.135 81 421.302 50.3333 466.969 50.3333C512.802 50.3333 543.969 81 543.969 125C543.969 169 512.802 199.667 466.969 199.667ZM466.969 170.833C491.969 170.833 510.969 152.5 510.969 125C510.969 97.5 491.969 79.1667 466.969 79.1667C442.135 79.1667 422.969 97.5 422.969 125C422.969 152.5 442.135 170.833 466.969 170.833ZM555.721 195V55H673.388V82.8333H588.888V115.833H668.721V141H588.888V195H555.721ZM687.557 195V55H720.724V195H687.557ZM735.018 195V55H773.518L838.518 149.167H841.685V55H874.185V195H836.352L770.518 100.833H767.518V195H735.018ZM1033.84 121V195H1013.01L1012.67 174.667C1003.01 189.333 985.339 199.667 960.505 199.667C918.172 199.667 885.839 169 885.839 125C885.839 81 917.172 50.3333 963.172 50.3333C993.505 50.3333 1024.17 64.5 1031.67 99.6667H998.505C993.172 87 980.505 79.1667 963.672 79.1667C937.672 79.1667 918.672 98 918.672 125C918.672 151.833 937.839 170.833 963.005 170.833C977.005 170.833 996.505 164.667 1001.34 143.5H960.672V121H1033.84Z" fill="black"/>
<path d="M461.417 295.333C440.083 295.333 428.833 287.75 428.917 271.333H443.917C444.5 277.917 449.917 282.083 461.417 282.167C472.25 282.167 478.167 278.5 478.167 273C478.167 268.167 474.25 265.75 465.917 264.333L457.25 262.833C444 260.5 430.833 257 430.833 241.75C430.833 228.5 442 220.667 461.583 220.667C479.833 220.667 492.5 227.083 492.667 244.417H477.75C476.667 238.083 471.75 233.833 461.25 233.833C451.75 233.833 446.75 237.083 446.75 242.5C446.75 246.75 450.167 249.417 457.333 250.75L464.917 252.083C478.25 254.5 494.667 256.75 494.667 273.5C494.667 287.417 483.25 295.333 461.417 295.333ZM537.477 295.333C514.643 295.333 499.06 280 499.06 258C499.06 236 514.643 220.667 537.477 220.667C560.393 220.667 575.977 236 575.977 258C575.977 280 560.393 295.333 537.477 295.333ZM537.477 280.917C549.977 280.917 559.477 271.75 559.477 258C559.477 244.25 549.977 235.083 537.477 235.083C525.06 235.083 515.477 244.25 515.477 258C515.477 271.75 525.06 280.917 537.477 280.917ZM581.853 293V223H598.436V279.083H638.77V293H581.853ZM678.103 295.333C656.52 295.333 644.353 285.167 644.353 263.833V223H661.103V263.417C661.103 274.583 666.686 281.333 678.103 281.333C689.52 281.333 695.186 274.583 695.186 263.417V223H711.853V263.833C711.853 285.167 699.686 295.333 678.103 295.333ZM787.629 223V236.917H761.379V293H744.712V236.917H718.546V223H787.629ZM794.255 293V223H810.839V293H794.255ZM855.152 295.333C832.319 295.333 816.736 280 816.736 258C816.736 236 832.319 220.667 855.152 220.667C878.069 220.667 893.652 236 893.652 258C893.652 280 878.069 295.333 855.152 295.333ZM855.152 280.917C867.652 280.917 877.152 271.75 877.152 258C877.152 244.25 867.652 235.083 855.152 235.083C842.736 235.083 833.152 244.25 833.152 258C833.152 271.75 842.736 280.917 855.152 280.917ZM899.529 293V223H918.779L951.279 270.083H952.862V223H969.112V293H950.195L917.279 245.917H915.779V293H899.529ZM1007.02 295.333C985.689 295.333 974.439 287.75 974.522 271.333H989.522C990.105 277.917 995.522 282.083 1007.02 282.167C1017.86 282.167 1023.77 278.5 1023.77 273C1023.77 268.167 1019.86 265.75 1011.52 264.333L1002.86 262.833C989.605 260.5 976.439 257 976.439 241.75C976.439 228.5 987.605 220.667 1007.19 220.667C1025.44 220.667 1038.11 227.083 1038.27 244.417H1023.36C1022.27 238.083 1017.36 233.833 1006.86 233.833C997.355 233.833 992.355 237.083 992.355 242.5C992.355 246.75 995.772 249.417 1002.94 250.75L1010.52 252.083C1023.86 254.5 1040.27 256.75 1040.27 273.5C1040.27 287.417 1028.86 295.333 1007.02 295.333Z" fill="black"/>
<path d="M33.1425 115.89C14.2425 115.89 1.5525 103.673 1.5525 85.65C1.5525 67.6275 14.2425 55.41 33.1425 55.41C46.5075 55.41 60.21 61.2825 62.37 79.6425H46.17C44.3475 73.095 39.555 70.0575 33.1425 70.0575C24.84 70.0575 18.36 76.2675 18.36 85.65C18.36 94.965 24.84 101.243 33.1425 101.243C39.555 101.243 44.3475 98.205 46.17 91.5225H62.37C60.21 110.017 46.6425 115.89 33.1425 115.89ZM2.565 195V138.3H23.9625L34.83 173.13H36.045L46.9125 138.3H68.3775V195H52.1775V166.853H50.8275L41.85 195H29.0925L20.115 166.853H18.6975V195H2.565Z" fill="#E04C26" fill-opacity="0.8"/>
</svg>
